<svg width="363" height="22" viewBox="0 0 363 22" fill="none" xmlns="http://www.w3.org/2000/svg">
<path d="M0.216797 18.26H18.2168V0.26H0.216797V18.26ZM19.2968 17V4.4H23.4638C24.3338 4.4 25.1498 4.565 25.9118 4.895C26.6738 5.219 27.3428 5.672 27.9188 6.254C28.4948 6.83 28.9448 7.499 29.2688 8.261C29.5988 9.017 29.7638 9.83 29.7638 10.7C29.7638 11.57 29.5988 12.386 29.2688 13.148C28.9448 13.904 28.4948 14.573 27.9188 15.155C27.3428 15.731 26.6738 16.184 25.9118 16.514C25.1498 16.838 24.3338 17 23.4638 17H19.2968ZM20.8088 15.488H23.4638C24.1238 15.488 24.7418 15.365 25.3178 15.119C25.8998 14.867 26.4098 14.522 26.8478 14.084C27.2858 13.646 27.6278 13.139 27.8738 12.563C28.1258 11.981 28.2518 11.36 28.2518 10.7C28.2518 10.04 28.1258 9.422 27.8738 8.846C27.6278 8.264 27.2828 7.754 26.8388 7.316C26.4008 6.878 25.8938 6.536 25.3178 6.29C24.7418 6.038 24.1238 5.912 23.4638 5.912H20.8088V15.488ZM31.3027 8H32.8147V17H31.3027V8ZM32.0767 6.533C31.8367 6.533 31.6357 6.455 31.4737 6.299C31.3117 6.143 31.2307 5.948 31.2307 5.714C31.2307 5.48 31.3117 5.285 31.4737 5.129C31.6357 4.973 31.8337 4.895 32.0677 4.895C32.3017 4.895 32.4997 4.973 32.6617 5.129C32.8237 5.285 32.9047 5.48 32.9047 5.714C32.9047 5.948 32.8237 6.143 32.6617 6.299C32.5057 6.455 32.3107 6.533 32.0767 6.533ZM37.6336 17.171C37.1476 17.153 36.6736 17.063 36.2116 16.901C35.7556 16.733 35.3536 16.508 35.0056 16.226C34.6636 15.938 34.4146 15.608 34.2586 15.236L35.5546 14.678C35.6446 14.882 35.8066 15.074 36.0406 15.254C36.2746 15.434 36.5446 15.578 36.8506 15.686C37.1566 15.794 37.4656 15.848 37.7776 15.848C38.1076 15.848 38.4166 15.797 38.7046 15.695C38.9926 15.593 39.2266 15.443 39.4066 15.245C39.5926 15.041 39.6856 14.798 39.6856 14.516C39.6856 14.216 39.5836 13.982 39.3796 13.814C39.1816 13.64 38.9296 13.505 38.6236 13.409C38.3236 13.307 38.0176 13.211 37.7056 13.121C37.0876 12.965 36.5356 12.779 36.0496 12.563C35.5636 12.341 35.1796 12.062 34.8976 11.726C34.6216 11.384 34.4836 10.949 34.4836 10.421C34.4836 9.863 34.6366 9.38 34.9426 8.972C35.2546 8.564 35.6626 8.249 36.1666 8.027C36.6706 7.805 37.2106 7.694 37.7866 7.694C38.5126 7.694 39.1756 7.85 39.7756 8.162C40.3756 8.474 40.8226 8.897 41.1166 9.431L39.9016 10.142C39.7996 9.926 39.6436 9.737 39.4336 9.575C39.2236 9.407 38.9836 9.275 38.7136 9.179C38.4436 9.083 38.1676 9.032 37.8856 9.026C37.5376 9.014 37.2106 9.059 36.9046 9.161C36.6046 9.263 36.3616 9.419 36.1756 9.629C35.9956 9.833 35.9056 10.088 35.9056 10.394C35.9056 10.694 36.0016 10.922 36.1936 11.078C36.3916 11.234 36.6466 11.36 36.9586 11.456C37.2766 11.546 37.6216 11.651 37.9936 11.771C38.5396 11.945 39.0496 12.146 39.5236 12.374C39.9976 12.602 40.3786 12.887 40.6666 13.229C40.9606 13.571 41.1046 13.994 41.0986 14.498C41.0986 15.05 40.9336 15.533 40.6036 15.947C40.2736 16.355 39.8446 16.667 39.3166 16.883C38.7946 17.099 38.2336 17.195 37.6336 17.171ZM48.7537 14.624L50.1037 15.353C49.6957 15.923 49.1767 16.379 48.5467 16.721C47.9227 17.063 47.2447 17.234 46.5127 17.234C45.6847 17.234 44.9287 17.021 44.2447 16.595C43.5667 16.169 43.0237 15.599 42.6157 14.885C42.2137 14.165 42.0127 13.37 42.0127 12.5C42.0127 11.84 42.1297 11.225 42.3637 10.655C42.5977 10.079 42.9187 9.575 43.3267 9.143C43.7407 8.705 44.2207 8.363 44.7667 8.117C45.3127 7.871 45.8947 7.748 46.5127 7.748C47.2447 7.748 47.9227 7.919 48.5467 8.261C49.1767 8.603 49.6957 9.062 50.1037 9.638L48.7537 10.367C48.4657 10.013 48.1237 9.74 47.7277 9.548C47.3317 9.356 46.9267 9.26 46.5127 9.26C45.9547 9.26 45.4477 9.41 44.9917 9.71C44.5417 10.004 44.1847 10.397 43.9207 10.889C43.6567 11.381 43.5247 11.918 43.5247 12.5C43.5247 13.082 43.6567 13.619 43.9207 14.111C44.1907 14.597 44.5507 14.987 45.0007 15.281C45.4567 15.575 45.9607 15.722 46.5127 15.722C46.9567 15.722 47.3737 15.62 47.7637 15.416C48.1537 15.212 48.4837 14.948 48.7537 14.624ZM55.5302 17.234C54.7022 17.234 53.9462 17.021 53.2622 16.595C52.5842 16.169 52.0412 15.599 51.6332 14.885C51.2312 14.165 51.0302 13.37 51.0302 12.5C51.0302 11.84 51.1472 11.225 51.3812 10.655C51.6152 10.079 51.9362 9.575 52.3442 9.143C52.7582 8.705 53.2382 8.363 53.7842 8.117C54.3302 7.871 54.9122 7.748 55.5302 7.748C56.3582 7.748 57.1112 7.961 57.7892 8.387C58.4732 8.813 59.0162 9.386 59.4182 10.106C59.8262 10.826 60.0302 11.624 60.0302 12.5C60.0302 13.154 59.9132 13.766 59.6792 14.336C59.4452 14.906 59.1212 15.41 58.7072 15.848C58.2992 16.28 57.8222 16.619 57.2762 16.865C56.7362 17.111 56.1542 17.234 55.5302 17.234ZM55.5302 15.722C56.0942 15.722 56.6012 15.575 57.0512 15.281C57.5072 14.981 57.8642 14.588 58.1222 14.102C58.3862 13.61 58.5182 13.076 58.5182 12.5C58.5182 11.912 58.3832 11.372 58.1132 10.88C57.8492 10.388 57.4922 9.995 57.0422 9.701C56.5922 9.407 56.0882 9.26 55.5302 9.26C54.9662 9.26 54.4592 9.41 54.0092 9.71C53.5592 10.004 53.2022 10.397 52.9382 10.889C52.6742 11.381 52.5422 11.918 52.5422 12.5C52.5422 13.1 52.6772 13.646 52.9472 14.138C53.2172 14.624 53.5802 15.011 54.0362 15.299C54.4922 15.581 54.9902 15.722 55.5302 15.722ZM65.7952 17H63.8602L60.5752 7.982H62.1862L64.8232 15.245L67.4602 7.982H69.0712L65.7952 17ZM74.1279 17.234C73.2999 17.234 72.5439 17.021 71.8599 16.595C71.1819 16.169 70.6389 15.599 70.2309 14.885C69.8289 14.165 69.6279 13.37 69.6279 12.5C69.6279 11.84 69.7449 11.225 69.9789 10.655C70.2129 10.079 70.5339 9.575 70.9419 9.143C71.3559 8.705 71.8359 8.363 72.3819 8.117C72.9279 7.871 73.5099 7.748 74.1279 7.748C74.8059 7.748 75.4269 7.886 75.9909 8.162C76.5609 8.432 77.0469 8.81 77.4489 9.296C77.8569 9.782 78.1599 10.346 78.3579 10.988C78.5619 11.63 78.6369 12.317 78.5829 13.049H71.2389C71.3109 13.559 71.4789 14.015 71.7429 14.417C72.0069 14.813 72.3429 15.128 72.7509 15.362C73.1649 15.596 73.6239 15.716 74.1279 15.722C74.6679 15.722 75.1569 15.584 75.5949 15.308C76.0329 15.026 76.3869 14.642 76.6569 14.156L78.1959 14.516C77.8359 15.314 77.2929 15.968 76.5669 16.478C75.8409 16.982 75.0279 17.234 74.1279 17.234ZM71.1939 11.861H77.0619C77.0139 11.357 76.8519 10.898 76.5759 10.484C76.2999 10.064 75.9489 9.728 75.5229 9.476C75.0969 9.224 74.6319 9.098 74.1279 9.098C73.6239 9.098 73.1619 9.221 72.7419 9.467C72.3219 9.713 71.9739 10.046 71.6979 10.466C71.4279 10.88 71.2599 11.345 71.1939 11.861ZM80.0995 17V8H81.6115V9.125C81.9295 8.705 82.3315 8.372 82.8175 8.126C83.3035 7.874 83.8315 7.748 84.4015 7.748C84.7495 7.748 85.0855 7.793 85.4095 7.883L84.7975 9.395C84.5515 9.317 84.3115 9.278 84.0775 9.278C83.6275 9.278 83.2135 9.389 82.8355 9.611C82.4635 9.827 82.1665 10.121 81.9445 10.493C81.7225 10.865 81.6115 11.279 81.6115 11.735V17H80.0995ZM98.72 4.4H100.502L96.236 11.303V17H94.724V11.303L90.458 4.4H92.24L95.48 9.647L98.72 4.4ZM104.52 17.234C103.692 17.234 102.936 17.021 102.252 16.595C101.574 16.169 101.031 15.599 100.623 14.885C100.221 14.165 100.02 13.37 100.02 12.5C100.02 11.84 100.137 11.225 100.371 10.655C100.605 10.079 100.926 9.575 101.334 9.143C101.748 8.705 102.228 8.363 102.774 8.117C103.32 7.871 103.902 7.748 104.52 7.748C105.348 7.748 106.101 7.961 106.779 8.387C107.463 8.813 108.006 9.386 108.408 10.106C108.816 10.826 109.02 11.624 109.02 12.5C109.02 13.154 108.903 13.766 108.669 14.336C108.435 14.906 108.111 15.41 107.697 15.848C107.289 16.28 106.812 16.619 106.266 16.865C105.726 17.111 105.144 17.234 104.52 17.234ZM104.52 15.722C105.084 15.722 105.591 15.575 106.041 15.281C106.497 14.981 106.854 14.588 107.112 14.102C107.376 13.61 107.508 13.076 107.508 12.5C107.508 11.912 107.373 11.372 107.103 10.88C106.839 10.388 106.482 9.995 106.032 9.701C105.582 9.407 105.078 9.26 104.52 9.26C103.956 9.26 103.449 9.41 102.999 9.71C102.549 10.004 102.192 10.397 101.928 10.889C101.664 11.381 101.532 11.918 101.532 12.5C101.532 13.1 101.667 13.646 101.937 14.138C102.207 14.624 102.57 15.011 103.026 15.299C103.482 15.581 103.98 15.722 104.52 15.722ZM110.027 13.58V8H111.539V13.247C111.539 13.703 111.65 14.117 111.872 14.489C112.094 14.861 112.391 15.158 112.763 15.38C113.141 15.596 113.555 15.704 114.005 15.704C114.461 15.704 114.872 15.596 115.238 15.38C115.61 15.158 115.907 14.861 116.129 14.489C116.351 14.117 116.462 13.703 116.462 13.247V8H117.974L117.983 17H116.471L116.462 15.857C116.144 16.277 115.742 16.613 115.256 16.865C114.77 17.111 114.245 17.234 113.681 17.234C113.009 17.234 112.394 17.072 111.836 16.748C111.284 16.418 110.843 15.977 110.513 15.425C110.189 14.873 110.027 14.258 110.027 13.58ZM119.791 17V8H121.303V9.125C121.621 8.705 122.023 8.372 122.509 8.126C122.995 7.874 123.523 7.748 124.093 7.748C124.441 7.748 124.777 7.793 125.101 7.883L124.489 9.395C124.243 9.317 124.003 9.278 123.769 9.278C123.319 9.278 122.905 9.389 122.527 9.611C122.155 9.827 121.858 10.121 121.636 10.493C121.414 10.865 121.303 11.279 121.303 11.735V17H119.791ZM130.689 17V4.4H134.856C135.726 4.4 136.542 4.565 137.304 4.895C138.066 5.219 138.735 5.672 139.311 6.254C139.887 6.83 140.337 7.499 140.661 8.261C140.991 9.017 141.156 9.83 141.156 10.7C141.156 11.57 140.991 12.386 140.661 13.148C140.337 13.904 139.887 14.573 139.311 15.155C138.735 15.731 138.066 16.184 137.304 16.514C136.542 16.838 135.726 17 134.856 17H130.689ZM132.201 15.488H134.856C135.516 15.488 136.134 15.365 136.71 15.119C137.292 14.867 137.802 14.522 138.24 14.084C138.678 13.646 139.02 13.139 139.266 12.563C139.518 11.981 139.644 11.36 139.644 10.7C139.644 10.04 139.518 9.422 139.266 8.846C139.02 8.264 138.675 7.754 138.231 7.316C137.793 6.878 137.286 6.536 136.71 6.29C136.134 6.038 135.516 5.912 134.856 5.912H132.201V15.488ZM142.748 17V8H144.26V9.125C144.578 8.705 144.98 8.372 145.466 8.126C145.952 7.874 146.48 7.748 147.05 7.748C147.398 7.748 147.734 7.793 148.058 7.883L147.446 9.395C147.2 9.317 146.96 9.278 146.726 9.278C146.276 9.278 145.862 9.389 145.484 9.611C145.112 9.827 144.815 10.121 144.593 10.493C144.371 10.865 144.26 11.279 144.26 11.735V17H142.748ZM152.667 17.234C151.839 17.234 151.083 17.021 150.399 16.595C149.721 16.169 149.178 15.599 148.77 14.885C148.368 14.165 148.167 13.37 148.167 12.5C148.167 11.84 148.284 11.225 148.518 10.655C148.752 10.079 149.073 9.575 149.481 9.143C149.895 8.705 150.375 8.363 150.921 8.117C151.467 7.871 152.049 7.748 152.667 7.748C153.345 7.748 153.966 7.886 154.53 8.162C155.1 8.432 155.586 8.81 155.988 9.296C156.396 9.782 156.699 10.346 156.897 10.988C157.101 11.63 157.176 12.317 157.122 13.049H149.778C149.85 13.559 150.018 14.015 150.282 14.417C150.546 14.813 150.882 15.128 151.29 15.362C151.704 15.596 152.163 15.716 152.667 15.722C153.207 15.722 153.696 15.584 154.134 15.308C154.572 15.026 154.926 14.642 155.196 14.156L156.735 14.516C156.375 15.314 155.832 15.968 155.106 16.478C154.38 16.982 153.567 17.234 152.667 17.234ZM149.733 11.861H155.601C155.553 11.357 155.391 10.898 155.115 10.484C154.839 10.064 154.488 9.728 154.062 9.476C153.636 9.224 153.171 9.098 152.667 9.098C152.163 9.098 151.701 9.221 151.281 9.467C150.861 9.713 150.513 10.046 150.237 10.466C149.967 10.88 149.799 11.345 149.733 11.861ZM165.822 8H167.334V17H165.822L165.759 15.479C165.477 16.001 165.087 16.424 164.589 16.748C164.097 17.072 163.509 17.234 162.825 17.234C162.165 17.234 161.547 17.111 160.971 16.865C160.395 16.613 159.885 16.268 159.441 15.83C159.003 15.386 158.661 14.876 158.415 14.3C158.169 13.724 158.046 13.103 158.046 12.437C158.046 11.795 158.166 11.189 158.406 10.619C158.646 10.049 158.979 9.551 159.405 9.125C159.837 8.693 160.335 8.357 160.899 8.117C161.463 7.871 162.069 7.748 162.717 7.748C163.425 7.748 164.046 7.916 164.58 8.252C165.114 8.582 165.546 9.011 165.876 9.539L165.822 8ZM162.798 15.767C163.392 15.767 163.905 15.623 164.337 15.335C164.775 15.041 165.111 14.645 165.345 14.147C165.585 13.649 165.705 13.1 165.705 12.5C165.705 11.888 165.585 11.336 165.345 10.844C165.105 10.346 164.766 9.953 164.328 9.665C163.896 9.371 163.386 9.224 162.798 9.224C162.204 9.224 161.664 9.371 161.178 9.665C160.692 9.959 160.305 10.355 160.017 10.853C159.735 11.345 159.594 11.894 159.594 12.5C159.594 13.106 159.741 13.658 160.035 14.156C160.329 14.648 160.719 15.041 161.205 15.335C161.691 15.623 162.222 15.767 162.798 15.767ZM169.133 17V8H170.645V9.125C170.963 8.705 171.362 8.372 171.842 8.126C172.328 7.874 172.856 7.748 173.426 7.748C174.092 7.748 174.701 7.91 175.253 8.234C175.805 8.558 176.24 8.987 176.558 9.521C176.876 8.987 177.308 8.558 177.854 8.234C178.406 7.91 179.012 7.748 179.672 7.748C180.35 7.748 180.965 7.913 181.517 8.243C182.069 8.567 182.507 9.005 182.831 9.557C183.161 10.109 183.326 10.724 183.326 11.402V17H181.814V11.762C181.814 11.318 181.706 10.907 181.49 10.529C181.274 10.151 180.983 9.848 180.617 9.62C180.251 9.392 179.846 9.278 179.402 9.278C178.958 9.278 178.553 9.386 178.187 9.602C177.821 9.812 177.53 10.106 177.314 10.484C177.098 10.856 176.99 11.282 176.99 11.762V17H175.478V11.762C175.478 11.282 175.37 10.856 175.154 10.484C174.938 10.106 174.644 9.812 174.272 9.602C173.906 9.386 173.501 9.278 173.057 9.278C172.619 9.278 172.214 9.392 171.842 9.62C171.476 9.848 171.185 10.151 170.969 10.529C170.753 10.907 170.645 11.318 170.645 11.762V17H169.133ZM189.453 17V4.4H193.611C194.289 4.4 194.898 4.565 195.438 4.895C195.984 5.225 196.416 5.672 196.734 6.236C197.058 6.794 197.22 7.418 197.22 8.108C197.22 8.81 197.055 9.443 196.725 10.007C196.401 10.565 195.963 11.009 195.411 11.339C194.865 11.663 194.265 11.825 193.611 11.825H190.965V17H189.453ZM190.965 10.313H193.476C193.884 10.313 194.256 10.214 194.592 10.016C194.934 9.812 195.204 9.539 195.402 9.197C195.606 8.849 195.708 8.459 195.708 8.027C195.708 7.589 195.606 7.199 195.402 6.857C195.204 6.509 194.934 6.236 194.592 6.038C194.256 5.834 193.884 5.732 193.476 5.732H190.965V10.313ZM198.769 17V8H200.281V9.125C200.599 8.705 201.001 8.372 201.487 8.126C201.973 7.874 202.501 7.748 203.071 7.748C203.419 7.748 203.755 7.793 204.079 7.883L203.467 9.395C203.221 9.317 202.981 9.278 202.747 9.278C202.297 9.278 201.883 9.389 201.505 9.611C201.133 9.827 200.836 10.121 200.614 10.493C200.392 10.865 200.281 11.279 200.281 11.735V17H198.769ZM208.688 17.234C207.86 17.234 207.104 17.021 206.42 16.595C205.742 16.169 205.199 15.599 204.791 14.885C204.389 14.165 204.188 13.37 204.188 12.5C204.188 11.84 204.305 11.225 204.539 10.655C204.773 10.079 205.094 9.575 205.502 9.143C205.916 8.705 206.396 8.363 206.942 8.117C207.488 7.871 208.07 7.748 208.688 7.748C209.516 7.748 210.269 7.961 210.947 8.387C211.631 8.813 212.174 9.386 212.576 10.106C212.984 10.826 213.188 11.624 213.188 12.5C213.188 13.154 213.071 13.766 212.837 14.336C212.603 14.906 212.279 15.41 211.865 15.848C211.457 16.28 210.98 16.619 210.434 16.865C209.894 17.111 209.312 17.234 208.688 17.234ZM208.688 15.722C209.252 15.722 209.759 15.575 210.209 15.281C210.665 14.981 211.022 14.588 211.28 14.102C211.544 13.61 211.676 13.076 211.676 12.5C211.676 11.912 211.541 11.372 211.271 10.88C211.007 10.388 210.65 9.995 210.2 9.701C209.75 9.407 209.246 9.26 208.688 9.26C208.124 9.26 207.617 9.41 207.167 9.71C206.717 10.004 206.36 10.397 206.096 10.889C205.832 11.381 205.7 11.918 205.7 12.5C205.7 13.1 205.835 13.646 206.105 14.138C206.375 14.624 206.738 15.011 207.194 15.299C207.65 15.581 208.148 15.722 208.688 15.722ZM216.19 21.5H214.678V8H216.19V9.539C216.496 9.011 216.904 8.585 217.414 8.261C217.924 7.931 218.53 7.766 219.232 7.766C219.886 7.766 220.498 7.889 221.068 8.135C221.644 8.381 222.148 8.723 222.58 9.161C223.012 9.593 223.351 10.094 223.597 10.664C223.843 11.234 223.966 11.846 223.966 12.5C223.966 13.154 223.843 13.769 223.597 14.345C223.351 14.921 223.012 15.428 222.58 15.866C222.148 16.298 221.644 16.637 221.068 16.883C220.498 17.129 219.886 17.252 219.232 17.252C218.53 17.252 217.924 17.09 217.414 16.766C216.904 16.436 216.496 16.007 216.19 15.479V21.5ZM219.214 9.233C218.632 9.233 218.122 9.38 217.684 9.674C217.246 9.968 216.907 10.361 216.667 10.853C216.433 11.345 216.316 11.894 216.316 12.5C216.316 13.1 216.433 13.649 216.667 14.147C216.907 14.645 217.243 15.041 217.675 15.335C218.113 15.629 218.626 15.776 219.214 15.776C219.796 15.776 220.33 15.632 220.816 15.344C221.302 15.05 221.692 14.657 221.986 14.165C222.28 13.667 222.427 13.112 222.427 12.5C222.427 11.9 222.283 11.354 221.995 10.862C221.707 10.364 221.32 9.968 220.834 9.674C220.348 9.38 219.808 9.233 219.214 9.233ZM229.378 17.234C228.55 17.234 227.794 17.021 227.11 16.595C226.432 16.169 225.889 15.599 225.481 14.885C225.079 14.165 224.878 13.37 224.878 12.5C224.878 11.84 224.995 11.225 225.229 10.655C225.463 10.079 225.784 9.575 226.192 9.143C226.606 8.705 227.086 8.363 227.632 8.117C228.178 7.871 228.76 7.748 229.378 7.748C230.056 7.748 230.677 7.886 231.241 8.162C231.811 8.432 232.297 8.81 232.699 9.296C233.107 9.782 233.41 10.346 233.608 10.988C233.812 11.63 233.887 12.317 233.833 13.049H226.489C226.561 13.559 226.729 14.015 226.993 14.417C227.257 14.813 227.593 15.128 228.001 15.362C228.415 15.596 228.874 15.716 229.378 15.722C229.918 15.722 230.407 15.584 230.845 15.308C231.283 15.026 231.637 14.642 231.907 14.156L233.446 14.516C233.086 15.314 232.543 15.968 231.817 16.478C231.091 16.982 230.278 17.234 229.378 17.234ZM226.444 11.861H232.312C232.264 11.357 232.102 10.898 231.826 10.484C231.55 10.064 231.199 9.728 230.773 9.476C230.347 9.224 229.882 9.098 229.378 9.098C228.874 9.098 228.412 9.221 227.992 9.467C227.572 9.713 227.224 10.046 226.948 10.466C226.678 10.88 226.51 11.345 226.444 11.861ZM235.35 17V8H236.862V9.125C237.18 8.705 237.582 8.372 238.068 8.126C238.554 7.874 239.082 7.748 239.652 7.748C240 7.748 240.336 7.793 240.66 7.883L240.048 9.395C239.802 9.317 239.562 9.278 239.328 9.278C238.878 9.278 238.464 9.389 238.086 9.611C237.714 9.827 237.417 10.121 237.195 10.493C236.973 10.865 236.862 11.279 236.862 11.735V17H235.35ZM246.586 9.512H244.543L244.534 17H243.022L243.031 9.512H241.483V8H243.031L243.022 5.174H244.534L244.543 8H246.586V9.512ZM254.153 8H255.755L250.832 21.5H249.23L250.859 17L247.628 8H249.284L251.615 14.921L254.153 8ZM265.88 17H264.35L261.335 8H262.811L265.133 14.867L267.428 8H268.985L271.289 14.867L273.584 8H275.078L272.063 17H270.524L268.193 10.07L265.88 17ZM276.535 8H278.047V17H276.535V8ZM277.309 6.533C277.069 6.533 276.868 6.455 276.706 6.299C276.544 6.143 276.463 5.948 276.463 5.714C276.463 5.48 276.544 5.285 276.706 5.129C276.868 4.973 277.066 4.895 277.3 4.895C277.534 4.895 277.732 4.973 277.894 5.129C278.056 5.285 278.137 5.48 278.137 5.714C278.137 5.948 278.056 6.143 277.894 6.299C277.738 6.455 277.543 6.533 277.309 6.533ZM284.871 9.512H282.828L282.819 17H281.307L281.316 9.512H279.768V8H281.316L281.307 5.174H282.819L282.828 8H284.871V9.512ZM294.44 11.402V17H292.928V11.735C292.928 11.279 292.817 10.865 292.595 10.493C292.373 10.121 292.076 9.827 291.704 9.611C291.332 9.389 290.918 9.278 290.462 9.278C290.012 9.278 289.598 9.389 289.22 9.611C288.848 9.827 288.551 10.121 288.329 10.493C288.107 10.865 287.996 11.279 287.996 11.735V17H286.484V3.5H287.996V9.125C288.314 8.705 288.716 8.372 289.202 8.126C289.688 7.874 290.216 7.748 290.786 7.748C291.458 7.748 292.07 7.913 292.622 8.243C293.18 8.567 293.621 9.005 293.945 9.557C294.275 10.109 294.44 10.724 294.44 11.402ZM300.564 17V4.4H308.295V5.912H302.076V9.494H307.17V11.006H302.076V15.488H308.295V17H300.564ZM313.013 17.171C312.527 17.153 312.053 17.063 311.591 16.901C311.135 16.733 310.733 16.508 310.385 16.226C310.043 15.938 309.794 15.608 309.638 15.236L310.934 14.678C311.024 14.882 311.186 15.074 311.42 15.254C311.654 15.434 311.924 15.578 312.23 15.686C312.536 15.794 312.845 15.848 313.157 15.848C313.487 15.848 313.796 15.797 314.084 15.695C314.372 15.593 314.606 15.443 314.786 15.245C314.972 15.041 315.065 14.798 315.065 14.516C315.065 14.216 314.963 13.982 314.759 13.814C314.561 13.64 314.309 13.505 314.003 13.409C313.703 13.307 313.397 13.211 313.085 13.121C312.467 12.965 311.915 12.779 311.429 12.563C310.943 12.341 310.559 12.062 310.277 11.726C310.001 11.384 309.863 10.949 309.863 10.421C309.863 9.863 310.016 9.38 310.322 8.972C310.634 8.564 311.042 8.249 311.546 8.027C312.05 7.805 312.59 7.694 313.166 7.694C313.892 7.694 314.555 7.85 315.155 8.162C315.755 8.474 316.202 8.897 316.496 9.431L315.281 10.142C315.179 9.926 315.023 9.737 314.812 9.575C314.603 9.407 314.363 9.275 314.093 9.179C313.823 9.083 313.547 9.032 313.265 9.026C312.917 9.014 312.59 9.059 312.284 9.161C311.984 9.263 311.741 9.419 311.555 9.629C311.375 9.833 311.285 10.088 311.285 10.394C311.285 10.694 311.381 10.922 311.573 11.078C311.771 11.234 312.026 11.36 312.338 11.456C312.656 11.546 313.001 11.651 313.373 11.771C313.919 11.945 314.429 12.146 314.903 12.374C315.377 12.602 315.758 12.887 316.046 13.229C316.34 13.571 316.484 13.994 316.478 14.498C316.478 15.05 316.313 15.533 315.983 15.947C315.653 16.355 315.224 16.667 314.696 16.883C314.174 17.099 313.613 17.195 313.013 17.171ZM322.681 9.512H320.638L320.629 17H319.117L319.126 9.512H317.578V8H319.126L319.117 5.174H320.629L320.638 8H322.681V9.512ZM331.302 8H332.814V17H331.302L331.239 15.479C330.957 16.001 330.567 16.424 330.069 16.748C329.577 17.072 328.989 17.234 328.305 17.234C327.645 17.234 327.027 17.111 326.451 16.865C325.875 16.613 325.365 16.268 324.921 15.83C324.483 15.386 324.141 14.876 323.895 14.3C323.649 13.724 323.526 13.103 323.526 12.437C323.526 11.795 323.646 11.189 323.886 10.619C324.126 10.049 324.459 9.551 324.885 9.125C325.317 8.693 325.815 8.357 326.379 8.117C326.943 7.871 327.549 7.748 328.197 7.748C328.905 7.748 329.526 7.916 330.06 8.252C330.594 8.582 331.026 9.011 331.356 9.539L331.302 8ZM328.278 15.767C328.872 15.767 329.385 15.623 329.817 15.335C330.255 15.041 330.591 14.645 330.825 14.147C331.065 13.649 331.185 13.1 331.185 12.5C331.185 11.888 331.065 11.336 330.825 10.844C330.585 10.346 330.246 9.953 329.808 9.665C329.376 9.371 328.866 9.224 328.278 9.224C327.684 9.224 327.144 9.371 326.658 9.665C326.172 9.959 325.785 10.355 325.497 10.853C325.215 11.345 325.074 11.894 325.074 12.5C325.074 13.106 325.221 13.658 325.515 14.156C325.809 14.648 326.199 15.041 326.685 15.335C327.171 15.623 327.702 15.767 328.278 15.767ZM339.275 9.512H337.232L337.223 17H335.711L335.72 9.512H334.172V8H335.72L335.711 5.174H337.223L337.232 8H339.275V9.512ZM344.62 17.234C343.792 17.234 343.036 17.021 342.352 16.595C341.674 16.169 341.131 15.599 340.723 14.885C340.321 14.165 340.12 13.37 340.12 12.5C340.12 11.84 340.237 11.225 340.471 10.655C340.705 10.079 341.026 9.575 341.434 9.143C341.848 8.705 342.328 8.363 342.874 8.117C343.42 7.871 344.002 7.748 344.62 7.748C345.298 7.748 345.919 7.886 346.483 8.162C347.053 8.432 347.539 8.81 347.941 9.296C348.349 9.782 348.652 10.346 348.85 10.988C349.054 11.63 349.129 12.317 349.075 13.049H341.731C341.803 13.559 341.971 14.015 342.235 14.417C342.499 14.813 342.835 15.128 343.243 15.362C343.657 15.596 344.116 15.716 344.62 15.722C345.16 15.722 345.649 15.584 346.087 15.308C346.525 15.026 346.879 14.642 347.149 14.156L348.688 14.516C348.328 15.314 347.785 15.968 347.059 16.478C346.333 16.982 345.52 17.234 344.62 17.234ZM341.686 11.861H347.554C347.506 11.357 347.344 10.898 347.068 10.484C346.792 10.064 346.441 9.728 346.015 9.476C345.589 9.224 345.124 9.098 344.62 9.098C344.116 9.098 343.654 9.221 343.234 9.467C342.814 9.713 342.466 10.046 342.19 10.466C341.92 10.88 341.752 11.345 341.686 11.861ZM350.469 8H351.981V17H350.469V8ZM351.243 6.533C351.003 6.533 350.802 6.455 350.64 6.299C350.478 6.143 350.397 5.948 350.397 5.714C350.397 5.48 350.478 5.285 350.64 5.129C350.802 4.973 351 4.895 351.234 4.895C351.468 4.895 351.666 4.973 351.828 5.129C351.99 5.285 352.071 5.48 352.071 5.714C352.071 5.948 351.99 6.143 351.828 6.299C351.672 6.455 351.477 6.533 351.243 6.533ZM362.063 11.402V17H360.551V11.735C360.551 11.279 360.44 10.865 360.218 10.493C359.996 10.121 359.699 9.827 359.327 9.611C358.955 9.389 358.541 9.278 358.085 9.278C357.635 9.278 357.221 9.389 356.843 9.611C356.471 9.827 356.174 10.121 355.952 10.493C355.73 10.865 355.619 11.279 355.619 11.735V17H354.107V8H355.619V9.125C355.937 8.705 356.339 8.372 356.825 8.126C357.311 7.874 357.839 7.748 358.409 7.748C359.081 7.748 359.693 7.913 360.245 8.243C360.803 8.567 361.244 9.005 361.568 9.557C361.898 10.109 362.063 10.724 362.063 11.402Z" fill="white"/>
</svg>
